<svg xmlns="http://www.w3.org/2000/svg" viewBox="0 0 771.1 137.71"><title>designbyauaha</title><path d="M698.6,103.5c1.7-4.8,1.7-9.6,1.7-14.5V71.7c-.1-13.2-7.3-23.4-20-27.2-14-4.1-27.2-2.3-38.7,5.9.1-12.6.4-25.7.4-38.7,0-5.9-2.4-9-8-10.9-.7-.2-1.3-.6-1.9-.8h-5a11,11,0,0,1,.2,1.8V56.2a15.38,15.38,0,0,1-.5,2.6c-5-9.5-12.9-13.6-22.2-15.3a57,57,0,0,0-27.8,1.4,35.86,35.86,0,0,0-11.3,5.9c-6.7,5.4-6.5,17.3,0,22.4.8-8.9,6.4-13.6,14.4-16A44,44,0,0,1,601.2,56a23.79,23.79,0,0,1,8,2.8c7.7,4.8,7.3,14.7-.8,18.6-3.7,1.8-7.9,2.8-11.9,4-8.4,2.5-17,4.2-25,7.5-9.4,3.8-13.8,11.7-13.7,22s4.6,18,13.9,22.5c8.4,4,17.2,4.8,26.3,3.6,10.2-1.4,20.4-4.9,30.8-.6q.45-2,.6-2.7c4.2,1.1,8.1,2.2,12.5,3.4v-4.9c0-19.7.1-39.4,0-59a15.52,15.52,0,0,1,6.4-13,28.16,28.16,0,0,1,24.9-4.8,14.76,14.76,0,0,1,11.4,11.7,33.87,33.87,0,0,1,.8,7.8c.1,16.9.1,33.8,0,50.8,0,3.2.5,6.3,3.5,7.8,3.3,1.6,7,2.5,10.6,3.7.4-.3.8-.6,1.3-1-.6-5.5-.9-11.1-2.1-16.5S696.7,108.8,698.6,103.5Zm-83.2,15.6a3.91,3.91,0,0,1-1.9,2.9c-10,4.3-20.3,5.6-30.8,2.4-6.4-2-10-6.6-10.3-12.4-.2-6.4,2.8-11.1,8.6-13.2,6.7-2.4,13.8-3.7,20.7-5.7,4.6-1.3,9.1-3.1,13.8-4.7C615.5,98,615.5,108.5,615.4,119.1Z"/><path d="M23.6,84.9c-7.7-1.3-15.7-.4-23.6-.6v52.6H14c15.9-.2,25.7-9,27.5-24.9C43,98.6,35.9,87,23.6,84.9Zm6.5,25a30.78,30.78,0,0,1-1.8,8.4c-2.8,7.4-8.5,10.6-17,9.8V93.3C23.6,91.1,31.1,97.7,30.1,109.9Z"/><path d="M557,118.7a81.86,81.86,0,0,1-.7-12.1c.2-3.4,2.1-6.7,2.2-10.1.3-14.4.1-28.8.1-43.2,0-3.5-1.5-6.2-4.6-7.5s-6.3-1.8-10-2.9V48q0,35.1.1,70.2c0,2.6-.6,4.1-3.3,4.5-7.5.9-14.9,2.6-22.4,2.4-12.8-.3-18-6.4-18-19.1,0-17.4-.1-34.8,0-52.2,0-4.2-1.8-7-5.5-8.3-2.7-1-5.7-1.5-9.1-2.4V58.9c-7.9-10.3-13-13.8-23.1-15.4-7.9-1.3-15.9-1.6-23.5.6-5.2,1.5-10.6,3.5-14.9,6.6-7.1,5.2-7,16.7-.4,22.7.8-8.5,5.9-13.3,13.5-15.9a44.47,44.47,0,0,1,22-1.6,22.3,22.3,0,0,1,8.7,3.2c7.3,4.8,6.8,14.4-1,18.2-3.8,1.9-8.1,2.9-12.2,4.1-8.1,2.4-16.5,4.1-24.4,7.2-10.4,4.2-14.8,12.7-14.2,23.9.5,10.4,5.8,17.5,15.3,21.6,7.9,3.4,16.2,4,24.7,3,7.5-.9,14.9-2,22.4-2.5,2.8-.2,5.8.9,9.1,1.5V123.5a29.78,29.78,0,0,0,15.3,11.6,53.14,53.14,0,0,0,27.7,1.3c9.1-1.9,18.3-4.6,28,.3,0-4.6.2-8.6-.1-12.5C558.4,122.3,557.2,120.6,557,118.7Zm-83.3.3a4.1,4.1,0,0,1-2.2,3.1c-9.4,4-19.2,5.3-29.2,2.7-7.2-1.9-11.3-6.5-11.7-12.9-.4-6.1,2.9-11.4,9.9-13.9,6.4-2.2,13.2-3.3,19.8-5.2,4.5-1.3,8.8-3.1,13.4-4.7C473.8,97.9,473.8,108.4,473.7,119Z"/><path d="M771.1,71.3c0-13.2-7-22.6-19.6-26.4a53.63,53.63,0,0,0-28.1-.9,52.93,52.93,0,0,0-14.8,6c-7.2,4.4-9.1,14.7-1.4,23.5.8-7.4,4.8-12.4,11.4-15A41.74,41.74,0,0,1,729,55.9c6.7-.8,13.4-.9,19.8,1.8,5.3,2.2,7.6,6.6,7.7,12,.1,4.7-3.6,6.9-7.3,8.4a98.92,98.92,0,0,1-10.9,3.5c-8.5,2.5-17.2,4.3-25.4,7.6-9.3,3.8-13.5,11.8-13.4,21.9s4.4,17.8,13.6,22.3c8.4,4.2,17.4,5,26.6,3.8,10.3-1.3,20.4-4.9,31.3-.4C771.1,114.5,771.1,92.9,771.1,71.3ZM757,118.2c0,1.3-1,3.4-2.1,3.9-9.5,4.1-19.4,5.3-29.5,2.6-6.9-1.8-10.9-6.5-11.3-12.4-.4-6.5,2.5-11.6,9.4-14.1,6.5-2.3,13.4-3.4,20.1-5.3,4.5-1.3,8.8-3.1,13.3-4.6,0,.2.1,1.2.1,2.3C757.1,99.7,757.2,108.9,757,118.2Z"/><path d="M233.6,116.4A220.75,220.75,0,0,1,219,90.6c-2.5-5.4-5.6-7.5-11.5-6.8-2.8.3-3.6.9-3.6,3.8.1,15.4.1,30.7.1,46.1,0,1,.1,2.1.2,3.1h11.1V106.1c4.8,7.4,9,15,13.1,22.5,5,9,5,9,15.4,8.3.1,0,.2-.1.7-.2V84.3H233.6Z"/><path d="M301.8,108.3c4.8-2,7.5-4.9,7.7-9.6.5-7.9-3.9-13.3-12-14.1-6.2-.6-12.5-.3-18.7-.6-3-.2-3.6,1-3.6,3.7.1,15.4,0,30.7.1,46.1,0,1,.2,2,.3,3.2,6.1,0,11.9.2,17.6-.1a28.59,28.59,0,0,0,8.7-1.7,14.34,14.34,0,0,0,9.8-13.7C311.8,115,309.1,111.4,301.8,108.3ZM286,92.9c2.8,0,5.6-.5,8.2.2a7.31,7.31,0,0,1,4.6,3.6,4.39,4.39,0,0,1-2.6,6c-3.1,1.1-6.6,1.4-10.2,2.1Zm7.8,35.3c-2.5.2-5,0-7.7,0V113.1c2.8,0,5.4-.2,8,0a7.82,7.82,0,0,1,7.1,8.4C301,125.4,298.4,127.9,293.8,128.2Z"/><path d="M173.4,108.3v8.5H182c0,2.8-.1,5.3,0,7.8.2,2.3-1,3.2-3,3.6-5.8,1.3-10.9-.8-14-6.3-3.7-6.7-4-13.7-1.6-20.9,2.1-6.3,6.4-9.3,13-8.9,4.4.3,8.8,1.1,13.6,1.8.4-2.4.9-5,1.4-7.9-6.4-2-12.8-3.3-19.5-2.5-10.2,1.3-17.7,7.3-19.6,17.2a49.5,49.5,0,0,0,0,18.4c1.7,8.8,7.5,14.8,16.5,17.2a32.45,32.45,0,0,0,22.1-2.2c.8-.4,1.9-1.4,2-2.1.1-7.9.1-15.7.1-23.8C186.2,108.3,179.9,108.3,173.4,108.3Z"/><path d="M61.3,112.6H79.5v-8.8H61.4V92.7H81.3V84c-10,0-19.8-.1-29.6.1-.6,0-1.7,2-1.7,3.1-.1,11.4-.1,22.8-.1,34.2v15.5H81.2v-8.6h-20C61.3,122.9,61.3,117.9,61.3,112.6Z"/><path d="M117,107.9c-3.1-1.8-6.5-3.1-9.7-4.7-1.6-.8-3.5-1.5-4.5-2.8a6.86,6.86,0,0,1-1.2-5.1c.3-1.2,2.2-2.3,3.7-2.7a10.29,10.29,0,0,1,4.6.2c3.2.5,6.3,1.2,9.7,1.8.6-3,1.1-5.7,1.6-8.4-5.9-2.3-13.4-3.3-18.7-2.5-6.8,1-10.6,4.3-12,10.1a13.78,13.78,0,0,0,5.8,15.3c2.7,1.9,5.9,3.1,8.9,4.7a69.48,69.48,0,0,1,6.6,3.6c3.9,2.9,3.2,8.5-1.4,10a20,20,0,0,1-8.1.6c-3.4-.4-6.6-1.6-10.1-2.4-1,2.5-2,5-3.1,7.8,7.9,3.7,15.7,5.2,23.8,3.4a15.16,15.16,0,0,0,12.2-13C126.1,116.6,123.6,111.5,117,107.9Z"/><path d="M349.8,83.9c-2.6-.2-4.1.7-5.2,3.2-2.6,5.7-5.5,11.3-8.6,17.5-3-6.4-5.7-12.3-8.5-18.1-.5-1-1.4-2.3-2.2-2.4-3.3-.3-6.6-.1-10.4-.1.8,1.7,1.3,2.8,1.8,3.8,4,7.9,8.1,15.7,12,23.7a19.48,19.48,0,0,1,1.7,7.2c.2,5.9.1,11.9.1,18h10.7a16.83,16.83,0,0,0,.2-2c-2.2-14.8,2.6-27.7,10.5-39.8,1.5-2.3,2.6-4.8,3.9-7.3.5-1,1-2,1.7-3.7C354.5,83.9,352.1,84.1,349.8,83.9Z"/><path d="M133.3,136.6h10.5V84.2H133.3Z"/></svg>