<svg xmlns="http://www.w3.org/2000/svg" width="33.227" height="22.844" viewBox="0 0 33.227 22.844"><defs><style>.a{fill:#50a7b0;}</style></defs><g transform="translate(0 -80)"><g transform="translate(0 88.307)"><g transform="translate(0 0)"><path class="a" d="M0,208v12.46a2.079,2.079,0,0,0,2.077,2.077H31.151a2.077,2.077,0,0,0,2.077-2.077V208Zm11.422,8.307H5.192a1.038,1.038,0,0,1,0-2.077h6.23a1.038,1.038,0,0,1,0,2.077Zm14.537,2.077a3.1,3.1,0,0,1-2.077-.808,3.115,3.115,0,1,1,0-4.614,3.111,3.111,0,1,1,2.077,5.422Z" transform="translate(0 -208)"/></g></g><g transform="translate(0 80)"><g transform="translate(0 0)"><path class="a" d="M31.151,80H2.077A2.08,2.08,0,0,0,0,82.077v2.077H33.227V82.077A2.079,2.079,0,0,0,31.151,80Z" transform="translate(0 -80)"/></g></g></g></svg>