<svg xmlns="http://www.w3.org/2000/svg" width="29.371" height="27.803" viewBox="0 0 29.371 27.803"><defs><style>.a{fill:#51a8b1;}</style></defs><g transform="translate(0 -1.179)"><path class="a" d="M29.371,4.784H7.71L7.09,1.179H1.6A1.6,1.6,0,0,0,0,2.781v1.6H4.391L7.216,20.817a.817.817,0,0,0,.778.655H26.968a1.6,1.6,0,0,0,1.6-1.6v-1.6H10.028L9.638,16H24.3a3.915,3.915,0,0,0,3.732-3.159Z"/><circle class="a" cx="2.77" cy="2.77" r="2.77" transform="translate(10.179 23.442)"/><path class="a" d="M29.762,37.421A2.77,2.77,0,1,0,32.53,34.65,2.769,2.769,0,0,0,29.762,37.421Z" transform="translate(-9.967 -11.21)"/></g></svg>