<svg xmlns="http://www.w3.org/2000/svg" xmlns:xlink="http://www.w3.org/1999/xlink" width="25" height="25" viewBox="0 0 25 25"><defs><clipPath id="a"><rect class="a" width="25" height="25" transform="translate(398 172)"/></clipPath></defs><g class="b" transform="translate(-398 -172)"><path class="a" d="M12.5,0A12.5,12.5,0,1,0,25,12.5,12.514,12.514,0,0,0,12.5,0Zm5.357,18.3H7.143a.893.893,0,0,1,0-1.786H17.857a.893.893,0,1,1,0,1.786Zm0-4.911H7.143a.893.893,0,1,1,0-1.786H17.857a.893.893,0,1,1,0,1.786Zm0-4.911H7.143a.893.893,0,0,1,0-1.786H17.857a.893.893,0,1,1,0,1.786Z" transform="translate(398 172)"/></g></svg>