<svg xmlns="http://www.w3.org/2000/svg" width="27.777" height="21.825" viewBox="0 0 27.777 21.825"><path class="a" d="M2.666,61.547q.527.372,3.178,2.209T9.9,66.585q.155.109.659.473t.837.589q.333.225.806.5a4.677,4.677,0,0,0,.891.418,2.456,2.456,0,0,0,.775.139H13.9a2.458,2.458,0,0,0,.775-.139,4.682,4.682,0,0,0,.891-.418q.473-.279.806-.5t.837-.589q.5-.365.659-.473,1.426-.992,7.254-5.038a7.363,7.363,0,0,0,1.891-1.907,4.093,4.093,0,0,0,.76-2.34,2.5,2.5,0,0,0-2.48-2.48H2.48a2.214,2.214,0,0,0-1.837.806A3.129,3.129,0,0,0,0,57.641a3.621,3.621,0,0,0,.853,2.116A7.694,7.694,0,0,0,2.666,61.547Z" transform="translate(0 -54.82)"/><path class="a" d="M26.227,185.786q-5.084,3.441-7.719,5.348-.884.651-1.434,1.015a8.847,8.847,0,0,1-1.465.744,4.46,4.46,0,0,1-1.7.38h-.031a4.462,4.462,0,0,1-1.705-.38,8.851,8.851,0,0,1-1.465-.744q-.55-.364-1.434-1.015-2.093-1.534-7.7-5.348A8.211,8.211,0,0,1,0,184.437v12.307A2.388,2.388,0,0,0,.728,198.5a2.388,2.388,0,0,0,1.752.729H25.3a2.488,2.488,0,0,0,2.48-2.48V184.437A8.548,8.548,0,0,1,26.227,185.786Z" transform="translate(0 -177.4)"/></svg>