<svg xmlns="http://www.w3.org/2000/svg" width="30.105" height="25.805" viewBox="0 0 30.105 25.805"><g transform="translate(0 -31.617)"><path class="a" d="M16.12,31.617c-7.724,0-13.985,5.777-13.985,12.9a12.026,12.026,0,0,0,1.291,5.42L.118,55.921a.944.944,0,0,0,1.076,1.367L8.436,55.3a14.765,14.765,0,0,0,7.684,2.122c7.724,0,13.985-5.777,13.985-12.9S23.844,31.617,16.12,31.617ZM16.1,51.148a1.384,1.384,0,1,1,1.384-1.384A1.386,1.386,0,0,1,16.1,51.148Zm1.45-6.584c-.182.124-.307.216-.375.273v1.446a1.074,1.074,0,0,1-2.149,0V44.725a2.343,2.343,0,0,1,1.312-1.936c.6-.408.992-.678.992-1.52a1.23,1.23,0,1,0-2.46,0,1.074,1.074,0,0,1-2.149,0,3.379,3.379,0,0,1,6.757,0A3.7,3.7,0,0,1,17.547,44.564Z" transform="translate(0)"/></g></svg>