<svg xmlns="http://www.w3.org/2000/svg" width="17.5" height="22.647" viewBox="0 0 17.5 22.647">
  <g id="calculator" transform="translate(-5.342)">
    <g id="Layer_1_66_" transform="translate(5.342)">
      <g id="Grupo_302" data-name="Grupo 302">
        <path id="Caminho_8611" data-name="Caminho 8611" d="M21.813,0H6.371A1.029,1.029,0,0,0,5.342,1.03V21.618a1.03,1.03,0,0,0,1.029,1.03H21.813a1.029,1.029,0,0,0,1.029-1.03V1.03A1.029,1.029,0,0,0,21.813,0Zm-1.03,2.058V5.147H7.4V2.058ZM7.4,20.589V7.206H20.783V20.587H7.4Z" transform="translate(-5.342)" fill="#fff"/>
        <path id="Caminho_8612" data-name="Caminho 8612" d="M14.4,16.844H12.265a.515.515,0,0,0-.515.515V19.5a.515.515,0,0,0,.515.515H14.4a.515.515,0,0,0,.515-.515V17.359A.513.513,0,0,0,14.4,16.844Z" transform="translate(-8.662 -8.728)" fill="#fff"/>
        <path id="Caminho_8613" data-name="Caminho 8613" d="M22.866,16.844H20.73a.515.515,0,0,0-.515.515V19.5a.515.515,0,0,0,.515.515h2.137a.515.515,0,0,0,.515-.515V17.359A.514.514,0,0,0,22.866,16.844Z" transform="translate(-13.048 -8.728)" fill="#fff"/>
        <path id="Caminho_8614" data-name="Caminho 8614" d="M31.331,16.844H29.194a.514.514,0,0,0-.514.515V19.5a.514.514,0,0,0,.514.515h2.137a.515.515,0,0,0,.515-.515V17.359A.514.514,0,0,0,31.331,16.844Z" transform="translate(-17.435 -8.728)" fill="#fff"/>
        <path id="Caminho_8615" data-name="Caminho 8615" d="M14.4,25.555H12.265a.514.514,0,0,0-.515.514v2.138a.514.514,0,0,0,.515.514H14.4a.514.514,0,0,0,.515-.514V26.069A.513.513,0,0,0,14.4,25.555Z" transform="translate(-8.662 -13.241)" fill="#fff"/>
        <path id="Caminho_8616" data-name="Caminho 8616" d="M22.866,25.555H20.73a.514.514,0,0,0-.515.514v2.138a.514.514,0,0,0,.515.514h2.137a.514.514,0,0,0,.515-.514V26.069A.513.513,0,0,0,22.866,25.555Z" transform="translate(-13.048 -13.241)" fill="#fff"/>
        <path id="Caminho_8617" data-name="Caminho 8617" d="M14.4,34.266H12.265a.514.514,0,0,0-.515.514v2.138a.514.514,0,0,0,.515.515H14.4a.515.515,0,0,0,.515-.515V34.78A.513.513,0,0,0,14.4,34.266Z" transform="translate(-8.662 -17.755)" fill="#fff"/>
        <path id="Caminho_8618" data-name="Caminho 8618" d="M22.866,34.266H20.73a.514.514,0,0,0-.515.514v2.138a.514.514,0,0,0,.515.515h2.137a.515.515,0,0,0,.515-.515V34.78A.513.513,0,0,0,22.866,34.266Z" transform="translate(-13.048 -17.755)" fill="#fff"/>
        <path id="Caminho_8619" data-name="Caminho 8619" d="M31.331,25.555H29.194a.514.514,0,0,0-.514.514V32.4a.514.514,0,0,0,.514.515h2.137a.515.515,0,0,0,.515-.515V26.069A.514.514,0,0,0,31.331,25.555Z" transform="translate(-17.435 -13.241)" fill="#fff"/>
      </g>
    </g>
  </g>
</svg>
