<svg id="instagram" xmlns="http://www.w3.org/2000/svg" width="19.691" height="19.691" viewBox="0 0 19.691 19.691">
  <path id="Caminho_467" data-name="Caminho 467" d="M14.36,0H5.329A5.336,5.336,0,0,0,0,5.33v9.031a5.336,5.336,0,0,0,5.33,5.33H14.36a5.336,5.336,0,0,0,5.33-5.33V5.33A5.336,5.336,0,0,0,14.36,0ZM9.844,15.229a5.384,5.384,0,1,1,5.384-5.384A5.39,5.39,0,0,1,9.844,15.229Zm5.513-9.5A1.591,1.591,0,1,1,16.948,4.14,1.593,1.593,0,0,1,15.357,5.731Zm0,0" transform="translate(0.001 0)" fill="#51a8b1"/>
  <path id="Caminho_468" data-name="Caminho 468" d="M149.425,146.02a3.4,3.4,0,1,0,3.4,3.4A3.408,3.408,0,0,0,149.425,146.02Zm0,0" transform="translate(-139.579 -139.579)" fill="#51a8b1"/>
</svg>
