<svg id="blogger-logo" xmlns="http://www.w3.org/2000/svg" width="20.166" height="20.166" viewBox="0 0 20.166 20.166">
  <g id="post-blogger">
    <path id="Caminho_474" data-name="Caminho 474" d="M18.149,0H2.017A2.023,2.023,0,0,0,0,2.017V18.149a2.023,2.023,0,0,0,2.017,2.017H18.149a2.023,2.023,0,0,0,2.017-2.017V2.017A2.023,2.023,0,0,0,18.149,0ZM14.116,7.058V8.066a.953.953,0,0,0,1.008,1.008.953.953,0,0,1,1.008,1.008v3.025a2.971,2.971,0,0,1-3.025,3.025H7.058a2.971,2.971,0,0,1-3.025-3.025V6.05A2.971,2.971,0,0,1,7.058,3.025h4.033A2.971,2.971,0,0,1,14.116,6.05ZM8.066,8.066h2.622A.953.953,0,0,0,11.7,7.058.953.953,0,0,0,10.688,6.05H8.066A.953.953,0,0,0,7.058,7.058.953.953,0,0,0,8.066,8.066ZM12.1,11.091H8.066a1.008,1.008,0,0,0,0,2.017H12.1a1.008,1.008,0,0,0,0-2.017Z" fill="#51a8b1"/>
  </g>
</svg>
