<svg xmlns="http://www.w3.org/2000/svg" xmlns:xlink="http://www.w3.org/1999/xlink" width="25" height="25" viewBox="0 0 25 25">
  <defs>
    <clipPath id="clip-path">
      <rect id="Ret칙ngulo_166" data-name="Ret칙ngulo 166" width="25" height="25" transform="translate(30 1674)" stroke-width="1"/>
    </clipPath>
  </defs>
  <g id="Grupo_de_m치scara_45" data-name="Grupo de m치scara 45" transform="translate(-30 -1674)" clip-path="url(#clip-path)">
    <g id="user-experience" transform="translate(30 1674)">
      <path id="Caminho_8635" data-name="Caminho 8635" d="M16.895.732A.732.732,0,0,0,16.162,0H2.979a.732.732,0,0,0-.732.732V21.338a.732.732,0,0,0,.732.732H7.163a13.112,13.112,0,0,0,.865,2.216l.155.309a.732.732,0,0,0,.655.4H20.557a.732.732,0,0,0,.655-.4,14.682,14.682,0,0,0,1.542-6.533V15.479a2.2,2.2,0,0,0-3.007-2.044,2.2,2.2,0,0,0-2.852-1.492ZM11.768,5.859a2.2,2.2,0,0,0-2.2,2.2V14.82a3.673,3.673,0,0,0-2.855,2.856h-3V4.395H15.43v7.548a2.2,2.2,0,0,0-1.465,0V8.057A2.2,2.2,0,0,0,11.768,5.859ZM15.43,1.465V2.93H3.711V1.465ZM3.711,20.605V19.141H6.662a13.169,13.169,0,0,0,.166,1.465Zm13.916-7.324a.733.733,0,0,1,.732.732v1.465a.732.732,0,0,0,1.465,0,.732.732,0,0,1,1.465,0v2.584A13.218,13.218,0,0,1,20.1,23.535H9.291a11.777,11.777,0,0,1-1.18-5.285A2.2,2.2,0,0,1,9.57,16.336v2.108a.732.732,0,0,0,1.465,0V8.057a.732.732,0,0,1,1.465,0v7.422a.732.732,0,0,0,1.465,0V14.014a.732.732,0,0,1,1.465,0v1.465a.732.732,0,0,0,1.465,0V14.014A.733.733,0,0,1,17.627,13.281Z" />
    </g>
  </g>
</svg>
