<svg id="pinterest" xmlns="http://www.w3.org/2000/svg" width="20.166" height="20.166" viewBox="0 0 20.166 20.166">
  <g id="Grupo_215" data-name="Grupo 215">
    <path id="Caminho_469" data-name="Caminho 469" d="M15.108,0H5.041A5.065,5.065,0,0,0,0,5.057V15.124a5.061,5.061,0,0,0,5.041,5.041H15.108a5.068,5.068,0,0,0,5.057-5.057V5.057A5.068,5.068,0,0,0,15.108,0ZM11.091,12.884a2.16,2.16,0,0,1-1.825-.9s-.432,1.664-.528,1.985a7.882,7.882,0,0,1-1.344,2.369.1.1,0,0,1-.176-.048,8.316,8.316,0,0,1,.016-2.753c.144-.592.96-3.937.96-3.937a2.69,2.69,0,0,1-.24-1.136c0-1.072.64-1.873,1.44-1.873A.987.987,0,0,1,10.4,7.682a15.093,15.093,0,0,1-.656,2.561,1.13,1.13,0,0,0,1.184,1.392c1.408,0,2.369-1.761,2.369-3.841,0-1.584-1.1-2.769-3.1-2.769A3.489,3.489,0,0,0,6.514,8.483a2.073,2.073,0,0,0,.5,1.424c.144.16.16.224.112.4-.032.128-.112.448-.16.576a.251.251,0,0,1-.368.176A2.774,2.774,0,0,1,5.074,8.29c0-2.049,1.793-4.513,5.33-4.513,2.849,0,4.721,2,4.721,4.145C15.108,10.771,13.492,12.884,11.091,12.884Z" fill="#51a8b1"/>
  </g>
</svg>
