<svg xmlns="http://www.w3.org/2000/svg" width="28.655" height="20.166" viewBox="0 0 28.655 20.166">
  <g id="youtube" transform="translate(0 -45.917)">
    <path id="XMLID_823_" d="M27.538,47.648c-1.034-1.23-2.944-1.731-6.591-1.731H7.708c-3.731,0-5.673.534-6.7,1.843-1,1.276-1,3.157-1,5.76V58.48c0,5.042,1.192,7.6,7.708,7.6H20.947c3.163,0,4.915-.443,6.049-1.528,1.163-1.113,1.659-2.93,1.659-6.075V53.52C28.655,50.775,28.577,48.883,27.538,47.648ZM18.4,56.685l-6.012,3.142a.924.924,0,0,1-1.352-.819V52.744a.924.924,0,0,1,1.35-.82l6.012,3.122a.924.924,0,0,1,0,1.64Z" transform="translate(0 0)" fill="#51a8b1"/>
  </g>
</svg>
