<svg xmlns="http://www.w3.org/2000/svg" xmlns:xlink="http://www.w3.org/1999/xlink" width="25" height="25" viewBox="0 0 25 25">
  <defs>
    <clipPath id="clip-path">
      <rect id="Ret칙ngulo_168" data-name="Ret칙ngulo 168" width="25" height="25" transform="translate(30 1788)" stroke-width="4"/>
    </clipPath>
  </defs>
  <g id="Grupo_de_m치scara_47" data-name="Grupo de m치scara 47" transform="translate(-30 -1788)" clip-path="url(#clip-path)">
    <g id="settings" transform="translate(30 1788)">
      <g id="Grupo_313" data-name="Grupo 313">
        <path id="Caminho_8638" data-name="Caminho 8638" d="M23.72,9.876l-1.755-.3a9.908,9.908,0,0,0-.705-1.7l1.034-1.447a1.54,1.54,0,0,0-.167-1.99L20.571,2.883a1.533,1.533,0,0,0-1.091-.454,1.517,1.517,0,0,0-.893.287L17.135,3.75a9.805,9.805,0,0,0-1.765-.726L15.077,1.29A1.543,1.543,0,0,0,13.552,0h-2.2A1.543,1.543,0,0,0,9.829,1.29l-.3,1.776a9.664,9.664,0,0,0-1.7.715L6.392,2.747a1.543,1.543,0,0,0-1.99.167L2.841,4.47a1.546,1.546,0,0,0-.167,1.99L3.718,7.928a9.678,9.678,0,0,0-.695,1.708L1.29,9.928A1.543,1.543,0,0,0,0,11.453v2.2a1.543,1.543,0,0,0,1.29,1.525l1.776.3a9.664,9.664,0,0,0,.715,1.7L2.752,18.608a1.54,1.54,0,0,0,.167,1.99l1.556,1.556a1.533,1.533,0,0,0,1.091.454,1.517,1.517,0,0,0,.893-.287l1.468-1.044a9.88,9.88,0,0,0,1.65.679L9.87,23.71A1.543,1.543,0,0,0,11.4,25h2.2a1.543,1.543,0,0,0,1.525-1.29l.3-1.755a9.908,9.908,0,0,0,1.7-.705l1.447,1.034a1.533,1.533,0,0,0,.9.287h0a1.533,1.533,0,0,0,1.091-.454l1.556-1.556a1.546,1.546,0,0,0,.167-1.99L21.25,17.119a9.837,9.837,0,0,0,.705-1.7l1.755-.292A1.543,1.543,0,0,0,25,13.6V11.4A1.524,1.524,0,0,0,23.72,9.876ZM23.6,13.6a.135.135,0,0,1-.115.136l-2.193.366a.7.7,0,0,0-.564.517,8.36,8.36,0,0,1-.909,2.188.706.706,0,0,0,.031.768l1.29,1.817a.142.142,0,0,1-.016.178l-1.556,1.556a.133.133,0,0,1-.1.042.128.128,0,0,1-.078-.026l-1.812-1.29a.706.706,0,0,0-.768-.031,8.36,8.36,0,0,1-2.188.909.693.693,0,0,0-.517.564l-.371,2.193a.135.135,0,0,1-.136.115H11.4a.135.135,0,0,1-.136-.115L10.9,21.292a.7.7,0,0,0-.517-.564,8.681,8.681,0,0,1-2.141-.877.723.723,0,0,0-.355-.094.688.688,0,0,0-.407.131l-1.828,1.3a.155.155,0,0,1-.078.026.14.14,0,0,1-.1-.042L3.917,19.616a.142.142,0,0,1-.016-.178l1.285-1.8a.715.715,0,0,0,.031-.773A8.282,8.282,0,0,1,4.3,14.68a.715.715,0,0,0-.564-.517l-2.209-.376a.135.135,0,0,1-.115-.136v-2.2a.135.135,0,0,1,.115-.136L3.7,10.952a.706.706,0,0,0,.569-.522,8.352,8.352,0,0,1,.893-2.193.7.7,0,0,0-.037-.762l-1.3-1.828a.142.142,0,0,1,.016-.178L5.4,3.912a.133.133,0,0,1,.1-.042.128.128,0,0,1,.078.026l1.8,1.285a.715.715,0,0,0,.773.031,8.282,8.282,0,0,1,2.183-.919.715.715,0,0,0,.517-.564l.376-2.209a.135.135,0,0,1,.136-.115h2.2a.135.135,0,0,1,.136.115L14.064,3.7a.706.706,0,0,0,.522.569,8.477,8.477,0,0,1,2.24.919.706.706,0,0,0,.768-.031l1.8-1.3a.155.155,0,0,1,.078-.026.14.14,0,0,1,.1.042L21.13,5.431a.142.142,0,0,1,.016.178l-1.29,1.812a.706.706,0,0,0-.031.768,8.36,8.36,0,0,1,.909,2.188.693.693,0,0,0,.564.517l2.193.371a.135.135,0,0,1,.115.136v2.2Z" stroke-width="0.5"/>
        <path id="Caminho_8639" data-name="Caminho 8639" d="M12.5,7.1A5.395,5.395,0,1,0,17.9,12.5,5.4,5.4,0,0,0,12.5,7.1Zm0,9.38A3.985,3.985,0,1,1,16.487,12.5,3.987,3.987,0,0,1,12.5,16.482Z" stroke-width="0.5"/>
      </g>
    </g>
  </g>
</svg>
