<svg xmlns="http://www.w3.org/2000/svg" width="107.156" height="93.955" viewBox="0 0 107.156 93.955"><defs><style>.a{fill:#fff;}</style></defs><g transform="matrix(0.921, 0.391, -0.391, 0.921, 31.931, -3.367)"><g transform="translate(8.619 0)"><g transform="translate(0 0)"><path class="a" d="M126.3.209a1.6,1.6,0,0,0-1.6.012l-29.25,17.3a1.6,1.6,0,0,0,1.625,2.748l20.986-12.41-39.09,40.56L59.523,42.468l25.373-15a1.6,1.6,0,0,0-1.625-2.748L54.783,41.562a1.6,1.6,0,0,0,.345,2.9l23.219,7.1L88.591,70.21a.378.378,0,0,0,.033.05,1.592,1.592,0,0,0,2.481.323l11.778-11.511,22.155,6.778a1.6,1.6,0,0,0,2.063-1.526V1.6A1.6,1.6,0,0,0,126.3.209ZM88.678,52.549a1.6,1.6,0,0,0-.284.909v9.764L81.4,50.49l30.952-32.116Zm2.908,13.1V55.616l7.819,2.392Zm32.324-3.484-31.364-9.6L123.91,7.295Z" transform="translate(-53.999 0)"/></g></g><g transform="translate(8.619 55.01)"><path class="a" d="M71.624,345.116a1.6,1.6,0,0,0-2.257,0l-14.9,14.9a1.6,1.6,0,0,0,2.257,2.257l14.9-14.9A1.6,1.6,0,0,0,71.624,345.116Z" transform="translate(-53.999 -344.648)"/></g><g transform="translate(0 74.858)"><g transform="translate(0)"><path class="a" d="M6.4,469.468a1.6,1.6,0,0,0-2.257,0L.468,473.139A1.6,1.6,0,1,0,2.725,475.4L6.4,471.726A1.6,1.6,0,0,0,6.4,469.468Z" transform="translate(0 -469.001)"/></g></g><g transform="translate(20.044 78.435)"><path class="a" d="M128.3,491.878a1.595,1.595,0,1,0,.468,1.128A1.607,1.607,0,0,0,128.3,491.878Z" transform="translate(-125.58 -491.41)"/></g><g transform="translate(24.027 66.559)"><path class="a" d="M161.151,417.474a1.6,1.6,0,0,0-2.257,0L151,425.366a1.6,1.6,0,1,0,2.257,2.257l7.892-7.892A1.6,1.6,0,0,0,161.151,417.474Z" transform="translate(-150.534 -417.006)"/></g><g transform="translate(51.244 65.954)"><path class="a" d="M331.692,413.678a1.6,1.6,0,0,0-2.257,0l-7.914,7.914a1.6,1.6,0,1,0,2.257,2.257l7.914-7.914A1.6,1.6,0,0,0,331.692,413.678Z" transform="translate(-321.053 -413.211)"/></g><g transform="translate(42.526 21.289)"><path class="a" d="M269.155,133.848a1.6,1.6,0,1,0,.468,1.13A1.608,1.608,0,0,0,269.155,133.848Z" transform="translate(-266.43 -133.38)"/></g></g></svg>