<svg xmlns="http://www.w3.org/2000/svg" xmlns:xlink="http://www.w3.org/1999/xlink" width="25" height="25" viewBox="0 0 25 25"><defs><clipPath id="a"><rect class="a" width="25" height="25" transform="translate(1610 172)"/></clipPath></defs><g class="b" transform="translate(-1610 -172)"><g transform="translate(1611.471 172)"><g transform="translate(9.083 0.2)"><path class="a" d="M21.54,10.356,11.789.6A1.465,1.465,0,1,0,9.716,2.676l9.752,9.751a1.465,1.465,0,0,0,2.071-2.071Z" transform="translate(-9.288 -0.176)"/></g><g transform="translate(5.242 4.048)"><path class="a" d="M9.454,3.562l-.073.368a15.745,15.745,0,0,1-3.473,7.034l5.305,5.305a15.693,15.693,0,0,1,7-3.507l.369-.073Z" transform="translate(-5.908 -3.562)"/></g><g transform="translate(0 12.548)"><path class="a" d="M5.564,11.043,1.939,14.667a2.2,2.2,0,0,0,0,3.108L4.01,19.847a2.2,2.2,0,0,0,3.108,0l3.625-3.625Zm.518,5.7A.732.732,0,1,1,5.047,15.7l1.036-1.036A.732.732,0,0,1,7.118,15.7Z" transform="translate(-1.295 -11.043)"/></g><g transform="translate(7.894 16.898)"><path class="a" d="M12.854,19.714l1-1a2.2,2.2,0,0,0,0-3.107l-.74-.741a13.872,13.872,0,0,0-1.179.892l.884.885a.731.731,0,0,1,0,1.035L11.8,18.7l-1.488-1.442L8.242,19.325l3.323,3.22a1.465,1.465,0,0,0,2.071-2.073Z" transform="translate(-8.242 -14.87)"/></g><g transform="translate(14.733)"><path class="a" d="M14.992,0a.732.732,0,0,0-.732.732V2.2a.732.732,0,0,0,1.465,0V.732A.732.732,0,0,0,14.992,0Z" transform="translate(-14.26)"/></g><g transform="translate(19.127 5.859)"><path class="a" d="M20.324,5.156H18.859a.732.732,0,1,0,0,1.465h1.465a.732.732,0,1,0,0-1.465Z" transform="translate(-18.127 -5.156)"/></g><g transform="translate(17.663 1.465)"><path class="a" d="M19.553,1.5a.732.732,0,0,0-1.036,0L17.052,2.968A.732.732,0,1,0,18.088,4l1.465-1.465A.732.732,0,0,0,19.553,1.5Z" transform="translate(-16.838 -1.289)"/></g></g></g></svg>