<svg xmlns="http://www.w3.org/2000/svg" width="33.133" height="33.133" viewBox="0 0 33.133 33.133"><path class="a" d="M72.9,0A12.683,12.683,0,0,0,60.234,12.669V24.362a2.924,2.924,0,1,0,5.847,0V14.617a2.927,2.927,0,0,0-2.924-2.923,2.891,2.891,0,0,0-.934.167,10.708,10.708,0,0,1,21.357-.008,2.871,2.871,0,0,0-.933-.159,2.927,2.927,0,0,0-2.924,2.923v9.745a2.927,2.927,0,0,0,2.924,2.924,2.89,2.89,0,0,0,.974-.179V28.26a.976.976,0,0,1-.974.974h-7a2.923,2.923,0,1,0,0,1.949h7a2.927,2.927,0,0,0,2.923-2.923V12.669A12.683,12.683,0,0,0,72.9,0Zm0,0" transform="translate(-56.336)"/><path class="a" d="M481.883,213.6v11.335a2.919,2.919,0,0,0,1.949-2.744v-5.847a2.919,2.919,0,0,0-1.949-2.744Zm0,0" transform="translate(-450.699 -199.775)"/><path class="a" d="M0,216.342v5.847a2.919,2.919,0,0,0,1.949,2.744V213.6A2.919,2.919,0,0,0,0,216.342Zm0,0" transform="translate(0 -199.775)"/></svg>