<svg xmlns="http://www.w3.org/2000/svg" width="27.395" height="27.396" viewBox="0 0 27.395 27.396"><path class="a" d="M306.153,302.528l-6.285-6.285a12.1,12.1,0,0,1-3.632,3.632l6.285,6.285a2.568,2.568,0,0,0,3.632-3.632Z" transform="translate(-279.51 -279.517)"/><path class="a" d="M20.548,10.273A10.273,10.273,0,1,0,10.274,20.546,10.274,10.274,0,0,0,20.548,10.273Zm-10.273,7.7a7.7,7.7,0,1,1,7.705-7.7A7.713,7.713,0,0,1,10.274,17.978Z" transform="translate(-0.001)"/><path class="a" d="M75.817,81.809h1.712a4.286,4.286,0,0,1,4.281-4.281V75.816A6,6,0,0,0,75.817,81.809Z" transform="translate(-71.536 -71.535)"/></svg>