<svg xmlns="http://www.w3.org/2000/svg" width="24.012" height="27.442" viewBox="0 0 24.012 27.442"><defs><style>.a{fill:#50a7b0;}</style></defs><g transform="translate(-31.992 0)"><path class="a" d="M225.719,160A1.717,1.717,0,0,0,224,161.711v1.715h3.43v-1.715A1.717,1.717,0,0,0,225.719,160Z" transform="translate(-181.721 -151.42)"/><path class="a" d="M55.03.169a1.716,1.716,0,0,0-1.817.21,7.059,7.059,0,0,1-8.14,0,1.716,1.716,0,0,0-2.151,0,7.059,7.059,0,0,1-8.14,0,1.715,1.715,0,0,0-2.79,1.336V15.437c0,5.376,4.31,9.838,11.527,11.938a1.725,1.725,0,0,0,.958,0C51.7,25.275,56,20.813,56,15.437V1.716A1.714,1.714,0,0,0,55.03.169ZM49.144,17.151a1.715,1.715,0,0,1-1.715,1.715h-6.86a1.715,1.715,0,0,1-1.715-1.715v-3.43a1.715,1.715,0,0,1,1.715-1.715V10.291a3.43,3.43,0,1,1,6.86,0v1.715a1.715,1.715,0,0,1,1.715,1.715Z" transform="translate(0 0)"/><path class="a" d="M240.862,272a.858.858,0,1,0,.858.858A.858.858,0,0,0,240.862,272Z" transform="translate(-196.863 -257.417)"/></g></svg>