<svg xmlns="http://www.w3.org/2000/svg" width="37.613" height="23.11" viewBox="0 0 37.613 23.11"><defs><style>.a{fill:#51a8b1;}</style></defs><g transform="translate(0 0)"><path class="a" d="M11.143,134.483a3.311,3.311,0,1,0,3.308,3.308A3.313,3.313,0,0,0,11.143,134.483Zm0,4.968a1.657,1.657,0,1,1,1.654-1.659A1.662,1.662,0,0,1,11.143,139.45ZM8.29,134.484H.874a.532.532,0,0,0-.532.532v1.614a.532.532,0,0,0,.532.532H6.818A4.365,4.365,0,0,1,8.29,134.484Zm20.165,0a3.311,3.311,0,1,0,3.308,3.308A3.312,3.312,0,0,0,28.455,134.483Zm0,4.968a1.657,1.657,0,1,1,1.654-1.659A1.657,1.657,0,0,1,28.455,139.45Zm8.627-4.968H35.789v-7.228a4.26,4.26,0,0,0-.729-2.377l-3.239-4.8a4.251,4.251,0,0,0-3.526-1.872H23.274a1.063,1.063,0,0,0-1.064,1.064v15.211H13.993a4.374,4.374,0,0,1,1.468,2.681h8.675a4.366,4.366,0,0,1,8.643,0h4.3a.53.53,0,0,0,.532-.532v-1.617A.53.53,0,0,0,37.082,134.483Zm-5.3-8.648H25.157a.53.53,0,0,1-.532-.532v-3.675a.533.533,0,0,1,.532-.532h4.037a.532.532,0,0,1,.436.223L32.22,125A.53.53,0,0,1,31.784,125.835Zm-12.105,7.584H1.064A1.064,1.064,0,0,1,0,132.355v-4.787A1.064,1.064,0,0,1,1.064,126.5H19.679a1.064,1.064,0,0,1,1.064,1.064v4.787A1.064,1.064,0,0,1,19.679,133.419ZM8.51,124.909H1.064A1.064,1.064,0,0,1,0,123.845v-4.787a1.064,1.064,0,0,1,1.064-1.064H8.51a1.064,1.064,0,0,1,1.064,1.064v4.787A1.064,1.064,0,0,1,8.51,124.909Zm11.169,0H12.233a1.064,1.064,0,0,1-1.064-1.064v-4.787A1.064,1.064,0,0,1,12.233,118h7.446a1.064,1.064,0,0,1,1.064,1.064v4.787A1.064,1.064,0,0,1,19.679,124.909Z" transform="translate(0 -117.995)"/></g></svg>