<svg xmlns="http://www.w3.org/2000/svg" width="21.297" height="28" viewBox="0 0 21.297 28"><g transform="translate(-41.895)"><path class="a" d="M110.172,13.694c3.113,0,5.637-3.065,5.637-6.847S114.981,0,110.172,0s-5.637,3.065-5.637,6.847S107.059,13.694,110.172,13.694Z" transform="translate(-57.629)"/><path class="a" d="M41.9,300.49c0-.231,0-.065,0,0Z" transform="translate(0 -276.342)"/><path class="a" d="M308.085,301.7c0-.063,0-.438,0,0Z" transform="translate(-244.895 -277.367)"/><path class="a" d="M63.19,187.393c-.1-6.587-.965-8.464-7.548-9.653a3.946,3.946,0,0,1-3.087,1.181,3.947,3.947,0,0,1-3.087-1.181c-6.512,1.175-7.424,3.024-7.544,9.439-.01.524-.014.551-.016.49,0,.114,0,.325,0,.692,0,0,1.567,3.16,10.646,3.16s10.646-3.16,10.646-3.16c0-.236,0-.4,0-.512A4.235,4.235,0,0,1,63.19,187.393Z" transform="translate(-0.012 -163.521)"/></g></svg>