<svg xmlns="http://www.w3.org/2000/svg" width="27.476" height="27.476" viewBox="0 0 27.476 27.476"><path class="a" d="M13.741,0h-.007A13.729,13.729,0,0,0,2.615,21.79L.9,26.894l5.281-1.688A13.736,13.736,0,1,0,13.741,0Zm7.994,19.4a3.877,3.877,0,0,1-2.7,1.939c-.718.153-1.655.275-4.812-1.034-4.037-1.673-6.637-5.775-6.84-6.041A7.846,7.846,0,0,1,5.756,10.12a4.386,4.386,0,0,1,1.4-3.343,2,2,0,0,1,1.4-.493c.17,0,.323.009.46.015.4.017.606.041.872.678.331.8,1.139,2.77,1.235,2.973a.818.818,0,0,1,.058.744,2.374,2.374,0,0,1-.445.63c-.2.234-.395.412-.6.663-.185.218-.395.452-.161.855a12.194,12.194,0,0,0,2.229,2.77A10.1,10.1,0,0,0,15.438,17.6a.869.869,0,0,0,.969-.153,16.622,16.622,0,0,0,1.073-1.422.767.767,0,0,1,.986-.3c.371.129,2.334,1.1,2.737,1.3s.67.3.768.469A3.421,3.421,0,0,1,21.735,19.4Z"/></svg>